# xmcd
#
# Track frame offsets:
#	150
#	15507
#	30900
#	44310
#	63975
#	78867
#	93882
#	107747
#	122330
#	136325
#	150045
#	165655
#
# Disc length: 2391 seconds
#
# Revision: 0
# Processed by: cddbd v1.5.2PL0 Copyright (c) Steve Scherf et al.
# Submitted via: EasyCDDAExtractor 16.0.8.2
#
DISCID=7709550c
DTITLE=Συλλογικός δίσκος - Από την Πόλη στον Πειραιά-Κ. Σκαρβέλης 1
DYEAR=2000
DGENRE=Ρεμπέτικη
TTITLE0=Ιακωβίδης Αγάθωνας - Βρε τύχη πως με τυραννάς [Κώστα Σκαρβέλη]
TTITLE1=Ιακωβίδης Αγάθωνας - Μπεκρής [Κώστα Σκαρβέλη]
TTITLE2=Ιακωβίδης Αγάθωνας - Θα σε κλέψω, θα σε πάρω [Κώστα Σκαρβέλη]
TTITLE3=Ιακωβίδης Αγάθωνας - Δερβισάκι [Κώστα Σκαρβέλη]
TTITLE4=Παπάζογλου Σοφία - Τράβα ρε μάγκα και αλάνι [Κώστα Σκαρβέλη]
TTITLE5=Ιακωβίδης Αγάθωνας - Παραπονιέμαι στον ντουνιά [Κώστα Σκαρβέλη-Γιώρ. Φ
TTITLE5=ωτίδα]
TTITLE6=Ιακωβίδης Αγάθωνας - Μέσα στο Πασαλιμάνι [Κώστα Σκαρβέλη]
TTITLE7=Ιακωβίδης Αγάθωνας - Ο νέος μάγκας [Κώστα Σκαρβέλη]
TTITLE8=Ιακωβίδης Αγάθωνας - Μαρικάκι μου [Κώστα Σκαρβέλη]
TTITLE9=Ιακωβίδης Αγάθωνας-Γκολές Μπάμπης - Ζωΐτσα μου [Κώστα Σκαρβέλη]
TTITLE10=Ιακωβίδης Αγάθωνας - Στρίβε ρε Καράμπελα [Κώστα Σκαρβέλη]
TTITLE11=Ιακωβίδης Αγάθωνας - Μη μού λες πως δε με θέλεις [Κ. Σκαρβέλη-Κωνστ. 
TTITLE11=Μακρή]
EXTD=
EXTT0=
EXTT1=
EXTT2=
EXTT3=
EXTT4=
EXTT5=
EXTT6=
EXTT7=
EXTT8=
EXTT9=
EXTT10=
EXTT11=
PLAYORDER=
